<svg width="1909" height="1057" viewBox="0 0 1909 1057" fill="none" xmlns="http://www.w3.org/2000/svg">
<g clip-path="url(#clip0_2234_8802)">
<g opacity="0.2" clip-path="url(#clip1_2234_8802)">
<path d="M30.0975 873C-48.4557 873 -112 936.544 -112 1015.1C-112 1093.46 -48.4557 1157.19 30.0975 1157.19C108.456 1157.19 172.195 1093.65 172.195 1015.1C172 936.544 108.456 873 30.0975 873ZM30.0975 1148.03C-43.3878 1148.03 -102.839 1088.58 -102.839 1015.1C-102.839 941.612 -43.3878 882.161 30.0975 882.161C103.583 882.161 163.034 941.612 163.034 1015.1C163.034 1088.39 103.388 1148.03 30.0975 1148.03Z" fill="white"/>
<path d="M30.0988 903.603C-31.3014 903.603 -81.2012 953.502 -81.2012 1014.9C-81.2012 1076.3 -31.3014 1126.2 30.0988 1126.2C91.4989 1126.2 141.399 1076.5 141.399 1015.1C141.399 953.502 91.4989 903.603 30.0988 903.603ZM30.0988 1109.24C-21.9452 1109.24 -64.243 1066.95 -64.243 1014.9C-64.243 962.859 -21.9452 920.561 30.0988 920.561C82.1427 920.561 124.441 962.859 124.441 1014.9C124.441 1066.95 82.1427 1109.24 30.0988 1109.24Z" fill="white"/>
<path d="M30.098 952.527C-4.40304 952.527 -32.4717 980.596 -32.4717 1015.1C-32.4717 1049.6 -4.59796 1077.67 30.098 1077.67C64.599 1077.67 92.6677 1049.6 92.6677 1015.1C92.4727 980.596 64.599 952.527 30.098 952.527ZM30.098 1048.62C11.5805 1048.62 -3.42843 1033.61 -3.42843 1015.1C-3.42843 996.579 11.5805 981.571 30.098 981.571C48.6155 981.571 63.6244 996.579 63.6244 1015.1C63.6244 1033.61 48.6155 1048.62 30.098 1048.62Z" fill="white"/>
</g>
<g opacity="0.8" clip-path="url(#clip2_2234_8802)">
<path d="M1768.34 766.264C1768.34 767.784 1767.19 768.923 1765.67 768.923C1764.14 768.923 1763 767.784 1763 766.264C1763 764.745 1764.14 763.605 1765.67 763.605C1767.19 763.605 1768.34 764.872 1768.34 766.264Z" fill="white"/>
<path d="M1791.08 766.264C1791.08 767.784 1789.93 768.923 1788.41 768.923C1786.88 768.923 1785.74 767.784 1785.74 766.264C1785.74 764.745 1786.88 763.605 1788.41 763.605C1789.8 763.605 1791.08 764.872 1791.08 766.264Z" fill="white"/>
<path d="M1813.69 766.264C1813.69 767.784 1812.54 768.923 1811.02 768.923C1809.5 768.923 1808.35 767.784 1808.35 766.264C1808.35 764.745 1809.5 763.605 1811.02 763.605C1812.54 763.605 1813.69 764.872 1813.69 766.264Z" fill="white"/>
<path d="M1836.43 766.264C1836.43 767.784 1835.28 768.923 1833.76 768.923C1832.24 768.923 1831.09 767.784 1831.09 766.264C1831.09 764.745 1832.24 763.605 1833.76 763.605C1835.28 763.605 1836.43 764.872 1836.43 766.264Z" fill="white"/>
<path d="M1859.17 766.264C1859.17 767.784 1858.02 768.923 1856.5 768.923C1854.98 768.923 1853.83 767.784 1853.83 766.264C1853.83 764.745 1854.98 763.605 1856.5 763.605C1857.9 763.605 1859.17 764.872 1859.17 766.264Z" fill="white"/>
<path d="M1881.91 766.264C1881.91 767.784 1880.76 768.923 1879.24 768.923C1877.72 768.923 1876.57 767.784 1876.57 766.264C1876.57 764.745 1877.72 763.605 1879.24 763.605C1880.76 763.605 1881.91 764.872 1881.91 766.264Z" fill="white"/>
<path d="M1904.52 766.264C1904.52 767.784 1903.38 768.923 1901.85 768.923C1900.33 768.923 1899.18 767.784 1899.18 766.264C1899.18 764.745 1900.33 763.605 1901.85 763.605C1903.38 763.605 1904.52 764.872 1904.52 766.264Z" fill="white"/>
<path d="M1768.34 785.131C1768.34 786.65 1767.19 787.79 1765.67 787.79C1764.14 787.79 1763 786.65 1763 785.131C1763 783.611 1764.14 782.472 1765.67 782.472C1767.19 782.472 1768.34 783.611 1768.34 785.131Z" fill="white"/>
<path d="M1791.08 785.131C1791.08 786.65 1789.93 787.79 1788.41 787.79C1786.88 787.79 1785.74 786.65 1785.74 785.131C1785.74 783.611 1786.88 782.472 1788.41 782.472C1789.8 782.472 1791.08 783.611 1791.08 785.131Z" fill="white"/>
<path d="M1813.69 785.131C1813.69 786.65 1812.54 787.79 1811.02 787.79C1809.5 787.79 1808.35 786.65 1808.35 785.131C1808.35 783.611 1809.5 782.472 1811.02 782.472C1812.54 782.472 1813.69 783.611 1813.69 785.131Z" fill="white"/>
<path d="M1836.43 785.131C1836.43 786.65 1835.28 787.79 1833.76 787.79C1832.24 787.79 1831.09 786.65 1831.09 785.131C1831.09 783.611 1832.24 782.472 1833.76 782.472C1835.28 782.472 1836.43 783.611 1836.43 785.131Z" fill="white"/>
<path d="M1859.17 785.131C1859.17 786.65 1858.02 787.79 1856.5 787.79C1854.98 787.79 1853.83 786.65 1853.83 785.131C1853.83 783.611 1854.98 782.472 1856.5 782.472C1857.9 782.472 1859.17 783.611 1859.17 785.131Z" fill="white"/>
<path d="M1881.91 785.131C1881.91 786.65 1880.76 787.79 1879.24 787.79C1877.72 787.79 1876.57 786.65 1876.57 785.131C1876.57 783.611 1877.72 782.472 1879.24 782.472C1880.76 782.472 1881.91 783.611 1881.91 785.131Z" fill="white"/>
<path d="M1904.52 785.131C1904.52 786.65 1903.38 787.79 1901.85 787.79C1900.33 787.79 1899.18 786.65 1899.18 785.131C1899.18 783.611 1900.33 782.472 1901.85 782.472C1903.38 782.472 1904.52 783.611 1904.52 785.131Z" fill="white"/>
<path d="M1768.34 728.659C1768.34 730.178 1767.19 731.318 1765.67 731.318C1764.14 731.318 1763 730.178 1763 728.659C1763 727.14 1764.14 726 1765.67 726C1767.19 726 1768.34 727.14 1768.34 728.659Z" fill="white"/>
<path d="M1791.08 728.659C1791.08 730.178 1789.93 731.318 1788.41 731.318C1786.88 731.318 1785.74 730.178 1785.74 728.659C1785.74 727.14 1786.88 726 1788.41 726C1789.8 726 1791.08 727.14 1791.08 728.659Z" fill="white"/>
<path d="M1813.69 728.659C1813.69 730.178 1812.54 731.318 1811.02 731.318C1809.5 731.318 1808.35 730.178 1808.35 728.659C1808.35 727.14 1809.62 726 1811.02 726C1812.54 726 1813.69 727.14 1813.69 728.659Z" fill="white"/>
<path d="M1836.43 728.659C1836.43 730.178 1835.28 731.318 1833.76 731.318C1832.24 731.318 1831.09 730.178 1831.09 728.659C1831.09 727.14 1832.36 726 1833.76 726C1835.16 726 1836.43 727.14 1836.43 728.659Z" fill="white"/>
<path d="M1859.17 728.659C1859.17 730.178 1858.02 731.318 1856.5 731.318C1854.98 731.318 1853.83 730.178 1853.83 728.659C1853.83 727.14 1854.98 726 1856.5 726C1857.9 726 1859.17 727.14 1859.17 728.659Z" fill="white"/>
<path d="M1881.91 728.659C1881.91 730.178 1880.76 731.318 1879.24 731.318C1877.72 731.318 1876.57 730.178 1876.57 728.659C1876.57 727.14 1877.72 726 1879.24 726C1880.76 726 1881.91 727.14 1881.91 728.659Z" fill="white"/>
<path d="M1904.52 728.659C1904.52 730.178 1903.38 731.318 1901.85 731.318C1900.33 731.318 1899.18 730.178 1899.18 728.659C1899.18 727.14 1900.33 726 1901.85 726C1903.38 726 1904.52 727.14 1904.52 728.659Z" fill="white"/>
<path d="M1768.34 747.525C1768.34 749.045 1767.19 750.184 1765.67 750.184C1764.14 750.184 1763 748.918 1763 747.525C1763 746.006 1764.14 744.866 1765.67 744.866C1767.19 744.866 1768.34 746.006 1768.34 747.525Z" fill="white"/>
<path d="M1791.08 747.525C1791.08 749.045 1789.93 750.184 1788.41 750.184C1786.88 750.184 1785.74 749.045 1785.74 747.525C1785.74 746.006 1786.88 744.866 1788.41 744.866C1789.8 744.866 1791.08 746.006 1791.08 747.525Z" fill="white"/>
<path d="M1813.69 747.525C1813.69 749.045 1812.54 750.184 1811.02 750.184C1809.5 750.184 1808.35 749.045 1808.35 747.525C1808.35 746.006 1809.5 744.866 1811.02 744.866C1812.54 744.866 1813.69 746.006 1813.69 747.525Z" fill="white"/>
<path d="M1836.43 747.525C1836.43 749.045 1835.28 750.184 1833.76 750.184C1832.24 750.184 1831.09 749.045 1831.09 747.525C1831.09 746.006 1832.24 744.866 1833.76 744.866C1835.28 744.866 1836.43 746.006 1836.43 747.525Z" fill="white"/>
<path d="M1859.17 747.525C1859.17 749.045 1858.02 750.184 1856.5 750.184C1854.98 750.184 1853.83 749.045 1853.83 747.525C1853.83 746.006 1854.98 744.866 1856.5 744.866C1857.9 744.866 1859.17 746.006 1859.17 747.525Z" fill="white"/>
<path d="M1881.91 747.525C1881.91 749.045 1880.76 750.184 1879.24 750.184C1877.72 750.184 1876.57 749.045 1876.57 747.525C1876.57 746.006 1877.72 744.866 1879.24 744.866C1880.76 744.866 1881.91 746.006 1881.91 747.525Z" fill="white"/>
<path d="M1904.52 747.525C1904.52 749.045 1903.38 750.184 1901.85 750.184C1900.33 750.184 1899.18 749.045 1899.18 747.525C1899.18 746.006 1900.33 744.866 1901.85 744.866C1903.38 744.866 1904.52 746.006 1904.52 747.525Z" fill="white"/>
<path d="M1768.34 803.87C1768.34 805.389 1767.19 806.529 1765.67 806.529C1764.14 806.529 1763 805.389 1763 803.87C1763 802.35 1764.14 801.211 1765.67 801.211C1767.19 801.211 1768.34 802.477 1768.34 803.87Z" fill="white"/>
<path d="M1791.08 803.87C1791.08 805.389 1789.93 806.529 1788.41 806.529C1786.88 806.529 1785.74 805.389 1785.74 803.87C1785.74 802.35 1786.88 801.211 1788.41 801.211C1789.8 801.211 1791.08 802.477 1791.08 803.87Z" fill="white"/>
<path d="M1813.69 803.87C1813.69 805.389 1812.54 806.529 1811.02 806.529C1809.5 806.529 1808.35 805.389 1808.35 803.87C1808.35 802.35 1809.5 801.211 1811.02 801.211C1812.54 801.211 1813.69 802.477 1813.69 803.87Z" fill="white"/>
<path d="M1836.43 803.87C1836.43 805.389 1835.28 806.529 1833.76 806.529C1832.24 806.529 1831.09 805.389 1831.09 803.87C1831.09 802.35 1832.24 801.211 1833.76 801.211C1835.28 801.211 1836.43 802.477 1836.43 803.87Z" fill="white"/>
<path d="M1859.17 803.87C1859.17 805.389 1858.02 806.529 1856.5 806.529C1854.98 806.529 1853.83 805.389 1853.83 803.87C1853.83 802.35 1854.98 801.211 1856.5 801.211C1857.9 801.211 1859.17 802.477 1859.17 803.87Z" fill="white"/>
<path d="M1881.91 803.87C1881.91 805.389 1880.76 806.529 1879.24 806.529C1877.72 806.529 1876.57 805.389 1876.57 803.87C1876.57 802.35 1877.72 801.211 1879.24 801.211C1880.76 801.211 1881.91 802.477 1881.91 803.87Z" fill="white"/>
<path d="M1904.52 803.87C1904.52 805.389 1903.38 806.529 1901.85 806.529C1900.33 806.529 1899.18 805.389 1899.18 803.87C1899.18 802.35 1900.33 801.211 1901.85 801.211C1903.38 801.211 1904.52 802.477 1904.52 803.87Z" fill="white"/>
<path d="M1768.34 822.736C1768.34 824.256 1767.19 825.395 1765.67 825.395C1764.14 825.395 1763 824.256 1763 822.736C1763 821.217 1764.14 820.077 1765.67 820.077C1767.19 820.077 1768.34 821.217 1768.34 822.736Z" fill="white"/>
<path d="M1791.08 822.736C1791.08 824.256 1789.93 825.395 1788.41 825.395C1786.88 825.395 1785.74 824.256 1785.74 822.736C1785.74 821.217 1786.88 820.077 1788.41 820.077C1789.8 820.077 1791.08 821.217 1791.08 822.736Z" fill="white"/>
<path d="M1813.69 822.736C1813.69 824.256 1812.54 825.395 1811.02 825.395C1809.5 825.395 1808.35 824.256 1808.35 822.736C1808.35 821.217 1809.5 820.077 1811.02 820.077C1812.54 820.077 1813.69 821.217 1813.69 822.736Z" fill="white"/>
<path d="M1833.76 825.395C1835.23 825.395 1836.43 824.205 1836.43 822.736C1836.43 821.268 1835.23 820.077 1833.76 820.077C1832.29 820.077 1831.09 821.268 1831.09 822.736C1831.09 824.205 1832.29 825.395 1833.76 825.395Z" fill="white"/>
<path d="M1859.17 822.736C1859.17 824.256 1858.02 825.395 1856.5 825.395C1854.98 825.395 1853.83 824.256 1853.83 822.736C1853.83 821.217 1854.98 820.077 1856.5 820.077C1857.9 820.077 1859.17 821.217 1859.17 822.736Z" fill="white"/>
<path d="M1881.91 822.736C1881.91 824.256 1880.76 825.395 1879.24 825.395C1877.72 825.395 1876.57 824.256 1876.57 822.736C1876.57 821.217 1877.72 820.077 1879.24 820.077C1880.76 820.077 1881.91 821.217 1881.91 822.736Z" fill="white"/>
<path d="M1904.52 822.736C1904.52 824.256 1903.38 825.395 1901.85 825.395C1900.33 825.395 1899.18 824.256 1899.18 822.736C1899.18 821.217 1900.33 820.077 1901.85 820.077C1903.38 820.077 1904.52 821.217 1904.52 822.736Z" fill="white"/>
<path d="M1768.34 841.601C1768.34 843.121 1767.19 844.26 1765.67 844.26C1764.14 844.26 1763 843.121 1763 841.601C1763 840.082 1764.14 838.942 1765.67 838.942C1767.19 838.942 1768.34 840.082 1768.34 841.601Z" fill="white"/>
<path d="M1791.08 841.601C1791.08 843.121 1789.93 844.26 1788.41 844.26C1786.88 844.26 1785.74 843.121 1785.74 841.601C1785.74 840.082 1786.88 838.942 1788.41 838.942C1789.8 838.942 1791.08 840.082 1791.08 841.601Z" fill="white"/>
<path d="M1813.69 841.601C1813.69 843.121 1812.54 844.26 1811.02 844.26C1809.5 844.26 1808.35 843.121 1808.35 841.601C1808.35 840.082 1809.5 838.942 1811.02 838.942C1812.54 838.942 1813.69 840.082 1813.69 841.601Z" fill="white"/>
<path d="M1836.43 841.601C1836.43 843.121 1835.28 844.26 1833.76 844.26C1832.24 844.26 1831.09 843.121 1831.09 841.601C1831.09 840.082 1832.24 838.942 1833.76 838.942C1835.28 838.942 1836.43 840.082 1836.43 841.601Z" fill="white"/>
<path d="M1859.17 841.601C1859.17 843.121 1858.02 844.26 1856.5 844.26C1854.98 844.26 1853.83 843.121 1853.83 841.601C1853.83 840.082 1854.98 838.942 1856.5 838.942C1857.9 838.942 1859.17 840.082 1859.17 841.601Z" fill="white"/>
<path d="M1881.91 841.601C1881.91 843.121 1880.76 844.26 1879.24 844.26C1877.72 844.26 1876.57 843.121 1876.57 841.601C1876.57 840.082 1877.72 838.942 1879.24 838.942C1880.76 838.942 1881.91 840.082 1881.91 841.601Z" fill="white"/>
<path d="M1904.52 841.601C1904.52 843.121 1903.38 844.26 1901.85 844.26C1900.33 844.26 1899.18 843.121 1899.18 841.601C1899.18 840.082 1900.33 838.942 1901.85 838.942C1903.38 838.942 1904.52 840.082 1904.52 841.601Z" fill="white"/>
<path d="M1768.34 860.341C1768.34 861.86 1767.19 863 1765.67 863C1764.14 863 1763 861.86 1763 860.341C1763 858.821 1764.14 857.682 1765.67 857.682C1767.19 857.682 1768.34 858.948 1768.34 860.341Z" fill="white"/>
<path d="M1791.08 860.341C1791.08 861.86 1789.93 863 1788.41 863C1786.88 863 1785.74 861.86 1785.74 860.341C1785.74 858.821 1786.88 857.682 1788.41 857.682C1789.8 857.682 1791.08 858.948 1791.08 860.341Z" fill="white"/>
<path d="M1813.69 860.341C1813.69 861.86 1812.54 863 1811.02 863C1809.5 863 1808.35 861.86 1808.35 860.341C1808.35 858.821 1809.5 857.682 1811.02 857.682C1812.54 857.682 1813.69 858.948 1813.69 860.341Z" fill="white"/>
<path d="M1836.43 860.341C1836.43 861.86 1835.28 863 1833.76 863C1832.24 863 1831.09 861.86 1831.09 860.341C1831.09 858.821 1832.24 857.682 1833.76 857.682C1835.28 857.682 1836.43 858.948 1836.43 860.341Z" fill="white"/>
<path d="M1859.17 860.341C1859.17 861.86 1858.02 863 1856.5 863C1854.98 863 1853.83 861.86 1853.83 860.341C1853.83 858.821 1854.98 857.682 1856.5 857.682C1857.9 857.682 1859.17 858.948 1859.17 860.341Z" fill="white"/>
<path d="M1881.91 860.341C1881.91 861.86 1880.76 863 1879.24 863C1877.72 863 1876.57 861.86 1876.57 860.341C1876.57 858.821 1877.72 857.682 1879.24 857.682C1880.76 857.682 1881.91 858.948 1881.91 860.341Z" fill="white"/>
<path d="M1904.52 860.341C1904.52 861.86 1903.38 863 1901.85 863C1900.33 863 1899.18 861.86 1899.18 860.341C1899.18 858.821 1900.33 857.682 1901.85 857.682C1903.38 857.682 1904.52 858.948 1904.52 860.341Z" fill="white"/>
</g>
<g opacity="0.3">
<path d="M1761.99 52.0412L1771.65 61.6999L1745.78 87.5633L1720.1 61.8799L1729.75 52.2272L1745.78 68.2519L1761.99 52.0412Z" fill="white"/>
<path d="M1762.11 17.2375L1771.69 26.823L1745.83 52.6864L1720.22 27.0762L1729.95 17.3498L1745.97 33.3745L1762.11 17.2375Z" fill="white"/>
<path d="M1762.16 -17.641L1771.81 -7.98225L1746.03 17.8074L1720.34 -7.87598L1729.99 -17.5287L1746.02 -1.504L1762.16 -17.641Z" fill="white"/>
</g>
<path opacity="0.3" d="M794 785.553C780.071 799.482 757.377 799.482 743.447 785.553C729.518 771.623 729.518 748.929 743.447 735L794 785.553Z" fill="white"/>
<g opacity="0.3">
<path d="M848.486 506.89C859.205 506.89 867.937 498.165 867.937 487.453C867.937 476.742 859.205 468.017 848.486 468.017L848.486 506.89Z" fill="white"/>
<path d="M818.141 506.89C828.861 506.89 837.592 498.165 837.592 487.453C837.592 476.742 828.861 468.017 818.141 468.017L818.141 506.89Z" fill="white"/>
<path d="M787.796 506.89C798.515 506.89 807.247 498.165 807.247 487.453C807.247 476.742 798.515 468.017 787.796 468.017L787.796 506.89Z" fill="white"/>
</g>
<g opacity="0.3">
<path d="M146.301 121.921L146.301 110L178 110L178 141.699L166.169 141.699L166.169 121.921L146.301 121.921Z" fill="white"/>
<path d="M124.898 143.325L124.898 131.494L156.597 131.494L156.597 163.103L144.676 163.103L144.676 143.325L124.898 143.325Z" fill="white"/>
<path d="M103.495 164.819L103.495 152.898L135.103 152.898L135.103 184.597L123.272 184.597L123.272 164.819L103.495 164.819Z" fill="white"/>
<path d="M82.0005 186.222L82.0005 174.301L113.699 174.301L113.699 206L101.778 206L101.778 186.222L82.0005 186.222Z" fill="white"/>
</g>
</g>
<defs>
<clipPath id="clip0_2234_8802">
<rect width="1920" height="1080" fill="white" transform="translate(0 -23)"/>
</clipPath>
<clipPath id="clip1_2234_8802">
<rect width="284" height="284" fill="white" transform="translate(-112 873)"/>
</clipPath>
<clipPath id="clip2_2234_8802">
<rect width="187" height="137" fill="white" transform="translate(1763 726)"/>
</clipPath>
</defs>
</svg>
